<svg xmlns="http://www.w3.org/2000/svg" width="256" viewBox="0 0 512 512" xml:space="preserve" transform="rotate(180)" height="256">
  <path fill="#282C3F" d="M292.742 169.312c14.814 32.1 23.884 65.65 32.132 99.486 7.144 29.312 15.282 58.322 29.11 85.36 2.27 4.438 4.716 8.846 7.592 12.906 7.682 10.84 15.51 21.702 31.864 19-1.134 2.99-3.116 4.514-4.92 6.136-33.016 29.694-93.064 40.64-134.208-11.114-17.438-21.934-27.22-47.52-34.314-74.264-9.564-36.046-17.842-72.448-30.098-107.74-3.332-9.592-7.128-19-11.698-28.086-9.19-18.264-20.72-34.134-42.404-40.826 3.102-1.964 5.382-3.5 7.748-4.886 15.3-8.978 31.204-16.52 48.67-20.308 30.51-6.616 55.912 1.996 76.314 25.562 10.012 11.566 17.604 24.64 24.21 38.772zM408 107.42c21.488 0 42.476-.01 63.464.006 7.502.008 10.904 3.134 11.638 10.664a25.27 25.27 0 0 1-1.1 10.336c-22.816 70.944-45.58 141.906-68.354 212.862-1.788 5.572-3.884 11.01-7.464 15.722-5.794 7.63-13.014 8.34-20.092 1.826-6.31-5.804-9.816-13.378-12.58-21.294-11.126-31.884-22.094-63.822-33.326-95.668-2.722-7.72-2.93-15.06-.342-22.89 9.968-30.164 19.638-60.428 29.398-90.66 1.39-4.302 3.012-8.482 5.792-12.106 4.406-5.74 9.89-9.218 17.478-8.842 4.986.246 9.992.046 15.49.046zM98.374 227.376c5.632-17.478 11.1-34.594 16.6-51.7 1.842-5.73 4.02-11.324 7.816-16.1 5.518-6.94 12.308-7.656 19.03-1.826 6.496 5.632 10.14 13.16 12.9 21.074 11.512 32.996 22.866 66.046 34.364 99.046 2.17 6.23 2.242 12.276.194 18.566-10.194 31.33-20.264 62.7-30.37 94.06-1.498 4.646-3.536 9.012-6.836 12.656-4.082 4.51-8.936 7.068-15.324 7.03-26.49-.16-52.982-.062-79.472-.07-7.618-.002-10.932-2.884-11.924-10.392-.488-3.702.15-7.254 1.29-10.81 17.224-53.714 34.398-107.442 51.734-161.534z"/>
</svg>
