<svg width="309" height="25" viewBox="0 0 309 25" fill="none" xmlns="http://www.w3.org/2000/svg">
  <path
    d="M23.632 2.688C24.8053 2.688 25.392 3.168 25.392 4.128C25.392 4.42666 25.328 4.8 25.2 5.248L24.432 7.84C24.1973 8.62933 23.9093 9.184 23.568 9.504C23.2267 9.824 22.736 9.984 22.096 9.984C21.5627 9.984 21.1467 9.84533 20.848 9.568C20.5707 9.29067 20.304 8.85333 20.048 8.256L19.504 6.944C19.3333 6.53867 19.152 6.26133 18.96 6.112C18.768 5.96267 18.4693 5.888 18.064 5.888H17.328L13.264 20.192C13.2 20.4693 13.168 20.7147 13.168 20.928C13.168 21.184 13.2 21.3973 13.264 21.568C13.3493 21.7387 13.4667 21.92 13.616 22.112C13.808 22.4107 13.904 22.656 13.904 22.848C13.904 22.8907 13.8827 22.9973 13.84 23.168C13.7333 23.4453 13.52 23.648 13.2 23.776C12.9013 23.904 12.464 23.968 11.888 23.968H4.368C3.92 23.968 3.568 23.8933 3.312 23.744C3.07733 23.5947 2.96 23.3813 2.96 23.104C2.96 22.976 2.992 22.848 3.056 22.72C3.14133 22.528 3.23733 22.3893 3.344 22.304C3.472 22.1973 3.65333 22.0693 3.888 21.92C4.208 21.728 4.47467 21.5147 4.688 21.28C4.90133 21.0453 5.08267 20.6827 5.232 20.192L9.264 5.888H8.528C8.05867 5.888 7.67467 5.96267 7.376 6.112C7.07733 6.26133 6.75733 6.53867 6.416 6.944L5.36 8.256C4.86933 8.832 4.38933 9.26933 3.92 9.568C3.472 9.84533 2.98133 9.984 2.448 9.984C1.95733 9.984 1.57333 9.856 1.296 9.6C1.01867 9.344 0.88 8.992 0.88 8.544C0.88 8.33067 0.912 8.096 0.976 7.84L1.808 4.928C1.97867 4.33067 2.17067 3.88267 2.384 3.584C2.59733 3.264 2.896 3.04 3.28 2.912C3.68533 2.76267 4.25067 2.688 4.976 2.688H23.632ZM41.8973 19.584C41.8546 19.6693 41.8333 19.7973 41.8333 19.968C41.8333 20.1173 41.8653 20.2347 41.9293 20.32C42.0146 20.4053 42.1213 20.448 42.2493 20.448C42.5053 20.448 42.7186 20.3413 42.8893 20.128C43.0813 19.8933 43.2093 19.776 43.2733 19.776C43.3799 19.776 43.4653 19.8507 43.5293 20C43.5933 20.128 43.6253 20.288 43.6253 20.48C43.6466 21.0987 43.4439 21.7067 43.0173 22.304C42.5906 22.88 41.9613 23.36 41.1293 23.744C40.3186 24.1067 39.3373 24.288 38.1853 24.288C36.7773 24.288 35.6573 23.968 34.8253 23.328C33.9933 22.6667 33.5666 21.792 33.5453 20.704C33.5453 19.9147 33.7373 19.0293 34.1213 18.048L35.8813 13.44C35.9879 13.1627 36.0413 12.9387 36.0413 12.768C36.0413 12.4907 35.9453 12.2773 35.7533 12.128C35.5826 11.9573 35.3693 11.872 35.1133 11.872C34.7079 11.872 34.2919 12.064 33.8653 12.448C33.4599 12.8107 33.1293 13.408 32.8733 14.24V14.176L30.8573 20.672C30.7933 20.928 30.7613 21.152 30.7613 21.344C30.7613 21.6213 30.8146 21.8453 30.9213 22.016C31.0279 22.1653 31.1773 22.3147 31.3693 22.464C31.5186 22.6133 31.6253 22.7413 31.6892 22.848C31.7533 22.9333 31.7639 23.0507 31.7213 23.2C31.6146 23.4773 31.4013 23.68 31.0813 23.808C30.7613 23.936 30.2706 24 29.6093 24H22.3133C21.7586 24 21.3532 23.9147 21.0972 23.744C20.8412 23.552 20.7559 23.3067 20.8412 23.008C20.9266 22.752 21.1506 22.528 21.5132 22.336C21.8332 22.1653 22.0999 21.9627 22.3133 21.728C22.5266 21.4933 22.7079 21.12 22.8573 20.608L27.7213 4.64C27.7853 4.448 27.8173 4.288 27.8173 4.16C27.8173 3.92533 27.7533 3.73333 27.6253 3.584C27.5186 3.43467 27.3693 3.28533 27.1773 3.136C26.9639 2.96533 26.8039 2.816 26.6973 2.688C26.6119 2.56 26.6013 2.38933 26.6653 2.176C26.7933 1.68533 27.4653 1.25867 28.6813 0.895998C29.8973 0.533332 31.1666 0.351999 32.4893 0.351999C33.7266 0.351999 34.6333 0.586666 35.2093 1.056C35.8066 1.52533 36.1053 2.16533 36.1053 2.976C36.1053 3.44533 36.0306 3.904 35.8813 4.352L34.1533 9.984C34.9853 8.896 35.8599 8.13867 36.7773 7.712C37.7159 7.28533 38.7293 7.072 39.8173 7.072C41.1186 7.072 42.1639 7.46667 42.9533 8.256C43.7639 9.04533 44.1693 10.0693 44.1693 11.328C44.1693 11.9893 44.0626 12.64 43.8493 13.28L41.8973 19.584ZM55.848 6.912C58.5573 6.912 60.52 7.34933 61.736 8.224C62.952 9.07733 63.56 10.176 63.56 11.52C63.56 11.9253 63.5173 12.2987 63.432 12.64C63.112 14.048 62.216 15.0613 60.744 15.68C59.2933 16.2773 57.576 16.576 55.592 16.576C54.5893 16.576 53.6507 16.512 52.776 16.384C52.7547 17.4933 53.0533 18.272 53.672 18.72C54.2907 19.168 55.1547 19.392 56.264 19.392C56.776 19.392 57.2667 19.3387 57.736 19.232C58.2053 19.104 58.8027 18.9227 59.528 18.688C60.1253 18.4747 60.5307 18.368 60.744 18.368C60.9787 18.368 61.096 18.5067 61.096 18.784C61.1173 19.5307 60.84 20.32 60.264 21.152C59.688 21.9627 58.8347 22.656 57.704 23.232C56.5733 23.808 55.208 24.096 53.608 24.096C51.24 24.096 49.2987 23.4987 47.784 22.304C46.2693 21.1093 45.512 19.3707 45.512 17.088C45.512 16.448 45.5973 15.7013 45.768 14.848C46.3013 12.224 47.464 10.2507 49.256 8.928C51.0693 7.584 53.2667 6.912 55.848 6.912ZM53 14.464C53.0853 14.4853 53.2027 14.496 53.352 14.496C54.248 14.496 54.9307 14.08 55.4 13.248C55.8693 12.416 56.0933 11.488 56.072 10.464C56.0507 9.86667 55.88 9.568 55.56 9.568C55.3253 9.568 55.048 9.76 54.728 10.144C54.408 10.5067 54.088 11.0613 53.768 11.808C53.4693 12.5547 53.2133 13.44 53 14.464ZM80.4485 24.192C78.6565 24.192 77.0458 23.8613 75.6165 23.2C74.1872 22.5387 73.0458 21.568 72.1925 20.288C71.3605 18.9867 70.9445 17.4187 70.9445 15.584C70.9445 14.304 71.1685 12.9173 71.6165 11.424C72.5978 8.224 74.0805 5.92 76.0645 4.512C78.0485 3.08267 80.1712 2.368 82.4325 2.368C83.6485 2.368 84.7258 2.54933 85.6645 2.912C86.6032 3.27467 87.4672 3.79733 88.2565 4.48L89.1205 3.808C89.6965 3.36 90.1765 3.05067 90.5605 2.88C90.9658 2.70933 91.4138 2.624 91.9045 2.624C92.4378 2.624 92.8645 2.74133 93.1845 2.976C93.5045 3.21067 93.6645 3.552 93.6645 4C93.6645 4.23467 93.6218 4.46933 93.5365 4.704L91.7445 9.696C91.5525 10.272 91.3178 10.6773 91.0405 10.912C90.7845 11.1467 90.3898 11.264 89.8565 11.264C89.3018 11.264 88.8432 11.072 88.4805 10.688C88.1392 10.2827 87.7445 9.6 87.2965 8.64C86.7845 7.63733 86.3685 6.976 86.0485 6.656C85.7285 6.336 85.2592 6.176 84.6405 6.176C83.7658 6.176 82.9232 6.72 82.1125 7.808C81.3018 8.87467 80.5658 10.4853 79.9045 12.64C79.3498 14.4533 79.0725 15.968 79.0725 17.184C79.0725 18.2507 79.2752 19.0507 79.6805 19.584C80.0858 20.096 80.6298 20.352 81.3125 20.352C82.3152 20.352 83.1365 20.128 83.7765 19.68C84.4378 19.232 85.1098 18.624 85.7925 17.856C86.2192 17.3867 86.5605 17.0453 86.8165 16.832C87.0938 16.5973 87.3818 16.48 87.6805 16.48C88.0645 16.48 88.4698 16.672 88.8965 17.056C89.3232 17.44 89.5258 17.824 89.5045 18.208C89.5258 18.6773 89.1418 19.4027 88.3525 20.384C87.5845 21.3653 86.5072 22.2507 85.1205 23.04C83.7552 23.808 82.1978 24.192 80.4485 24.192ZM110.477 19.584C110.434 19.7547 110.413 19.8827 110.413 19.968C110.413 20.1173 110.445 20.2347 110.509 20.32C110.594 20.4053 110.701 20.448 110.829 20.448C111.085 20.448 111.298 20.3413 111.469 20.128C111.661 19.8933 111.789 19.776 111.853 19.776C111.959 19.776 112.045 19.8507 112.109 20C112.194 20.128 112.237 20.288 112.237 20.48C112.258 21.0773 112.045 21.6747 111.597 22.272C111.149 22.848 110.519 23.328 109.709 23.712C108.898 24.096 107.991 24.288 106.989 24.288C105.73 24.288 104.727 24.032 103.981 23.52C103.234 23.008 102.754 22.336 102.541 21.504C101.773 22.3573 100.919 23.008 99.9808 23.456C99.0634 23.8827 98.1248 24.096 97.1648 24.096C95.6714 24.096 94.4128 23.7333 93.3888 23.008C92.3861 22.2613 91.8848 21.2267 91.8848 19.904C91.8848 19.3067 91.9914 18.688 92.2048 18.048L94.2528 11.36C94.3168 11.168 94.3488 11.008 94.3488 10.88C94.3488 10.6453 94.2954 10.464 94.1888 10.336C94.0821 10.1867 93.9221 10.0373 93.7088 9.888C93.4954 9.71733 93.3461 9.568 93.2608 9.44C93.1754 9.312 93.1648 9.14133 93.2288 8.928C93.3568 8.43733 94.0288 8.01067 95.2448 7.648C96.4608 7.264 97.7301 7.072 99.0528 7.072C100.29 7.072 101.197 7.30667 101.773 7.776C102.349 8.24533 102.637 8.88533 102.637 9.696C102.637 10.1867 102.562 10.656 102.413 11.104L100.397 17.76C100.311 17.9947 100.269 18.2187 100.269 18.432C100.269 18.7307 100.354 18.9547 100.525 19.104C100.695 19.2533 100.919 19.328 101.197 19.328C101.602 19.328 101.933 19.2107 102.189 18.976C102.445 18.7413 102.701 18.3467 102.957 17.792L104.909 11.36C104.973 11.168 105.005 11.008 105.005 10.88C105.005 10.6453 104.951 10.464 104.845 10.336C104.738 10.1867 104.589 10.0373 104.397 9.888C104.183 9.71733 104.034 9.568 103.949 9.44C103.863 9.312 103.853 9.14133 103.917 8.928C104.023 8.43733 104.685 8.01067 105.901 7.648C107.117 7.264 108.386 7.072 109.709 7.072C110.946 7.072 111.853 7.30667 112.429 7.776C113.026 8.24533 113.325 8.87467 113.325 9.664C113.325 10.0693 113.239 10.5493 113.069 11.104L110.477 19.584ZM123.614 0.351999C124.852 0.351999 125.758 0.586666 126.334 1.056C126.932 1.52533 127.23 2.16533 127.23 2.976C127.23 3.44533 127.156 3.904 127.006 4.352L121.982 20.672C121.918 20.928 121.886 21.152 121.886 21.344C121.886 21.6213 121.94 21.8453 122.046 22.016C122.153 22.1653 122.302 22.3147 122.494 22.464C122.644 22.6133 122.75 22.7413 122.814 22.848C122.878 22.9333 122.889 23.0507 122.846 23.2C122.74 23.4773 122.526 23.68 122.206 23.808C121.886 23.936 121.396 24 120.734 24H113.438C112.884 24 112.478 23.9147 112.222 23.744C111.966 23.552 111.881 23.3067 111.966 23.008C112.052 22.752 112.276 22.528 112.638 22.336C112.958 22.1653 113.225 21.9627 113.438 21.728C113.652 21.4933 113.833 21.12 113.982 20.608L118.846 4.64C118.91 4.448 118.942 4.288 118.942 4.16C118.942 3.92533 118.878 3.73333 118.75 3.584C118.644 3.43467 118.494 3.28533 118.302 3.136C118.089 2.96533 117.929 2.816 117.822 2.688C117.737 2.56 117.726 2.38933 117.79 2.176C117.918 1.68533 118.59 1.25867 119.806 0.895998C121.022 0.533332 122.292 0.351999 123.614 0.351999ZM139.429 7.488C139.834 7.488 140.144 7.57333 140.357 7.744C140.592 7.91467 140.709 8.14933 140.709 8.448C140.709 8.53333 140.688 8.68267 140.645 8.896C140.368 9.83467 139.728 10.304 138.725 10.304H136.869L134.469 18.208C134.362 18.528 134.309 18.8587 134.309 19.2C134.309 19.584 134.416 19.8507 134.629 20C134.842 20.1493 135.141 20.224 135.525 20.224C135.866 20.224 136.293 20.1813 136.805 20.096C137.061 20.032 137.285 20 137.477 20C137.626 20 137.733 20.0533 137.797 20.16C137.882 20.2453 137.925 20.3627 137.925 20.512C137.946 20.9387 137.626 21.4613 136.965 22.08C136.325 22.6773 135.45 23.2 134.341 23.648C133.232 24.0747 132.005 24.288 130.661 24.288C129.21 24.288 128.048 23.9573 127.173 23.296C126.298 22.6347 125.861 21.728 125.861 20.576C125.861 20.0427 125.946 19.5307 126.117 19.04L128.165 12.704C128.272 12.3413 128.325 12.0533 128.325 11.84C128.325 11.4133 128.218 11.0507 128.005 10.752C127.813 10.4533 127.536 10.144 127.173 9.824C126.853 9.52533 126.629 9.28 126.501 9.088C126.373 8.87467 126.341 8.62933 126.405 8.352C126.49 8.07467 126.672 7.86133 126.949 7.712C127.226 7.56267 127.664 7.488 128.261 7.488H130.053L132.069 5.472C132.773 4.768 133.413 4.27733 133.989 4C134.586 3.72267 135.354 3.584 136.293 3.584C137.637 3.584 138.309 4.096 138.309 5.12C138.309 5.44 138.266 5.73867 138.181 6.016L137.733 7.488H139.429ZM158.508 19.584C158.465 19.7547 158.444 19.8827 158.444 19.968C158.444 20.1173 158.476 20.2347 158.54 20.32C158.625 20.4053 158.732 20.448 158.86 20.448C159.116 20.448 159.329 20.3413 159.5 20.128C159.692 19.8933 159.82 19.776 159.884 19.776C159.991 19.776 160.076 19.8507 160.14 20C160.225 20.128 160.268 20.288 160.268 20.48C160.289 21.0773 160.076 21.6747 159.628 22.272C159.18 22.848 158.551 23.328 157.74 23.712C156.929 24.096 156.023 24.288 155.02 24.288C153.761 24.288 152.759 24.032 152.012 23.52C151.265 23.008 150.785 22.336 150.572 21.504C149.804 22.3573 148.951 23.008 148.012 23.456C147.095 23.8827 146.156 24.096 145.196 24.096C143.703 24.096 142.444 23.7333 141.42 23.008C140.417 22.2613 139.916 21.2267 139.916 19.904C139.916 19.3067 140.023 18.688 140.236 18.048L142.284 11.36C142.348 11.168 142.38 11.008 142.38 10.88C142.38 10.6453 142.327 10.464 142.22 10.336C142.113 10.1867 141.953 10.0373 141.74 9.888C141.527 9.71733 141.377 9.568 141.292 9.44C141.207 9.312 141.196 9.14133 141.26 8.928C141.388 8.43733 142.06 8.01067 143.276 7.648C144.492 7.264 145.761 7.072 147.084 7.072C148.321 7.072 149.228 7.30667 149.804 7.776C150.38 8.24533 150.668 8.88533 150.668 9.696C150.668 10.1867 150.593 10.656 150.444 11.104L148.428 17.76C148.343 17.9947 148.3 18.2187 148.3 18.432C148.3 18.7307 148.385 18.9547 148.556 19.104C148.727 19.2533 148.951 19.328 149.228 19.328C149.633 19.328 149.964 19.2107 150.22 18.976C150.476 18.7413 150.732 18.3467 150.988 17.792L152.94 11.36C153.004 11.168 153.036 11.008 153.036 10.88C153.036 10.6453 152.983 10.464 152.876 10.336C152.769 10.1867 152.62 10.0373 152.428 9.888C152.215 9.71733 152.065 9.568 151.98 9.44C151.895 9.312 151.884 9.14133 151.948 8.928C152.055 8.43733 152.716 8.01067 153.932 7.648C155.148 7.264 156.417 7.072 157.74 7.072C158.977 7.072 159.884 7.30667 160.46 7.776C161.057 8.24533 161.356 8.87467 161.356 9.664C161.356 10.0693 161.271 10.5493 161.1 11.104L158.508 19.584ZM177.15 7.072C178.344 7.072 179.294 7.43467 179.998 8.16C180.723 8.88533 181.086 9.78133 181.086 10.848C181.086 11.2533 181.043 11.6267 180.958 11.968C180.744 12.8427 180.339 13.5147 179.742 13.984C179.144 14.4533 178.43 14.688 177.597 14.688C176.787 14.688 176.168 14.496 175.742 14.112C175.336 13.728 174.974 13.216 174.654 12.576C174.483 12.2133 174.323 11.9467 174.174 11.776C174.024 11.6053 173.854 11.52 173.662 11.52C173.448 11.52 173.256 11.6053 173.086 11.776C172.936 11.9467 172.798 12.2453 172.67 12.672L170.206 20.672C170.163 20.7787 170.142 20.9387 170.142 21.152C170.142 21.4293 170.216 21.664 170.366 21.856C170.536 22.0267 170.76 22.1973 171.038 22.368C171.294 22.5387 171.464 22.6773 171.55 22.784C171.635 22.8907 171.667 23.0293 171.646 23.2C171.603 23.4773 171.443 23.68 171.166 23.808C170.91 23.936 170.462 24 169.822 24H161.63C161.075 24 160.68 23.9147 160.445 23.744C160.189 23.552 160.093 23.3067 160.157 23.008C160.243 22.752 160.467 22.528 160.829 22.336C161.149 22.1653 161.416 21.9627 161.63 21.728C161.843 21.4933 162.024 21.12 162.174 20.608L165.022 11.36C165.064 11.2533 165.086 11.104 165.086 10.912C165.086 10.6773 165.032 10.496 164.926 10.368C164.84 10.24 164.691 10.08 164.478 9.888C164.264 9.71733 164.115 9.568 164.03 9.44C163.944 9.312 163.934 9.14133 163.998 8.928C164.126 8.43733 164.798 8.01067 166.014 7.648C167.23 7.264 168.499 7.072 169.822 7.072C170.696 7.072 171.422 7.27467 171.998 7.68C172.574 8.064 172.947 8.61867 173.118 9.344C174.142 7.82933 175.486 7.072 177.15 7.072ZM190.768 7.072C193.221 7.072 195.184 7.53067 196.656 8.448C198.128 9.344 198.864 10.72 198.864 12.576C198.864 13.28 198.736 14.08 198.48 14.976L197.168 19.392C197.146 19.4773 197.136 19.584 197.136 19.712C197.136 20.0533 197.274 20.224 197.552 20.224C197.808 20.224 198.021 20.1173 198.192 19.904C198.384 19.6693 198.512 19.552 198.576 19.552C198.682 19.552 198.768 19.6267 198.832 19.776C198.917 19.9253 198.96 20.096 198.96 20.288C198.981 20.864 198.757 21.4507 198.288 22.048C197.84 22.6453 197.232 23.136 196.464 23.52C195.696 23.904 194.853 24.096 193.936 24.096C192.826 24.096 191.877 23.8933 191.088 23.488C190.298 23.0827 189.754 22.4853 189.456 21.696C188.816 22.464 188.058 23.0613 187.184 23.488C186.309 23.8933 185.37 24.096 184.368 24.096C183.237 24.096 182.288 23.8827 181.52 23.456C180.752 23.008 180.176 22.4427 179.792 21.76C179.429 21.056 179.248 20.32 179.248 19.552C179.248 19.2107 179.28 18.88 179.344 18.56C179.685 17.088 180.421 15.9787 181.552 15.232C182.704 14.4853 184.069 14.112 185.648 14.112C187.418 14.112 189.157 14.3893 190.864 14.944L191.664 12.832C191.941 11.936 192.08 11.2427 192.08 10.752C192.058 10.24 191.888 9.856 191.568 9.6C191.248 9.344 190.757 9.216 190.096 9.216C190.224 9.55733 190.288 9.90933 190.288 10.272C190.288 11.0613 189.989 11.744 189.392 12.32C188.794 12.896 187.941 13.184 186.832 13.184C185.786 13.184 184.965 12.96 184.368 12.512C183.792 12.0427 183.504 11.4667 183.504 10.784C183.504 9.71733 184.101 8.832 185.296 8.128C186.49 7.424 188.314 7.072 190.768 7.072ZM188.976 16.768C188.378 16.768 187.888 17.0027 187.504 17.472C187.141 17.92 186.96 18.4107 186.96 18.944C186.96 19.2853 187.034 19.5627 187.184 19.776C187.354 19.9893 187.589 20.096 187.888 20.096C188.165 20.096 188.464 19.9893 188.784 19.776C189.125 19.5413 189.37 19.2 189.52 18.752L190.192 16.864C189.829 16.8 189.424 16.768 188.976 16.768ZM210.489 0.351999C211.727 0.351999 212.633 0.586666 213.209 1.056C213.807 1.52533 214.105 2.16533 214.105 2.976C214.105 3.44533 214.031 3.904 213.881 4.352L208.857 20.672C208.793 20.928 208.761 21.152 208.761 21.344C208.761 21.6213 208.815 21.8453 208.921 22.016C209.028 22.1653 209.177 22.3147 209.369 22.464C209.519 22.6133 209.625 22.7413 209.689 22.848C209.753 22.9333 209.764 23.0507 209.721 23.2C209.615 23.4773 209.401 23.68 209.081 23.808C208.761 23.936 208.271 24 207.609 24H200.313C199.759 24 199.353 23.9147 199.097 23.744C198.841 23.552 198.756 23.3067 198.841 23.008C198.927 22.752 199.151 22.528 199.513 22.336C199.833 22.1653 200.1 21.9627 200.313 21.728C200.527 21.4933 200.708 21.12 200.857 20.608L205.721 4.64C205.785 4.448 205.817 4.288 205.817 4.16C205.817 3.92533 205.753 3.73333 205.625 3.584C205.519 3.43467 205.369 3.28533 205.177 3.136C204.964 2.96533 204.804 2.816 204.697 2.688C204.612 2.56 204.601 2.38933 204.665 2.176C204.793 1.68533 205.465 1.25867 206.681 0.895998C207.897 0.533332 209.167 0.351999 210.489 0.351999ZM243.334 2.688C244.209 2.688 244.646 2.96533 244.646 3.52C244.646 3.66933 244.636 3.776 244.614 3.84C244.55 4.05333 244.454 4.224 244.326 4.352C244.198 4.45867 244.017 4.58667 243.782 4.736C243.462 4.928 243.196 5.14133 242.982 5.376C242.769 5.61067 242.588 5.97333 242.438 6.464L238.47 20.672C238.108 21.952 237.649 22.848 237.094 23.36C236.561 23.872 235.814 24.128 234.854 24.128C234.001 24.128 233.286 23.8827 232.71 23.392C232.156 22.88 231.633 22.1013 231.142 21.056L226.31 10.88L223.622 20.224C223.558 20.5013 223.526 20.7467 223.526 20.96C223.526 21.2373 223.569 21.472 223.654 21.664C223.761 21.8347 223.9 22.016 224.07 22.208C224.305 22.4853 224.422 22.72 224.422 22.912C224.422 23.04 224.412 23.136 224.39 23.2C224.305 23.4987 224.113 23.712 223.814 23.84C223.516 23.9467 223.068 24 222.47 24H218.982C218.108 24 217.67 23.7227 217.67 23.168C217.67 23.0187 217.681 22.912 217.702 22.848C217.766 22.6347 217.862 22.4747 217.99 22.368C218.118 22.24 218.3 22.1013 218.534 21.952C218.854 21.76 219.121 21.5467 219.334 21.312C219.548 21.0773 219.729 20.7147 219.878 20.224L223.942 5.856L223.43 4.8C223.217 4.37333 223.11 4 223.11 3.68C223.11 3.01867 223.537 2.688 224.39 2.688H229.126C229.809 2.688 230.321 2.848 230.662 3.168C231.025 3.46667 231.409 4.01067 231.814 4.8L236.486 14.176L238.694 6.464C238.758 6.16533 238.79 5.92 238.79 5.728C238.79 5.45067 238.737 5.22667 238.63 5.056C238.545 4.864 238.417 4.672 238.246 4.48C238.012 4.20267 237.894 3.968 237.894 3.776C237.894 3.648 237.905 3.552 237.926 3.488C238.012 3.18933 238.204 2.98667 238.502 2.88C238.801 2.752 239.249 2.688 239.846 2.688H243.334ZM252.504 6.912C255.214 6.912 257.176 7.34933 258.392 8.224C259.608 9.07733 260.216 10.176 260.216 11.52C260.216 11.9253 260.174 12.2987 260.088 12.64C259.768 14.048 258.872 15.0613 257.4 15.68C255.95 16.2773 254.232 16.576 252.248 16.576C251.246 16.576 250.307 16.512 249.432 16.384C249.411 17.4933 249.71 18.272 250.328 18.72C250.947 19.168 251.811 19.392 252.92 19.392C253.432 19.392 253.923 19.3387 254.392 19.232C254.862 19.104 255.459 18.9227 256.184 18.688C256.782 18.4747 257.187 18.368 257.4 18.368C257.635 18.368 257.752 18.5067 257.752 18.784C257.774 19.5307 257.496 20.32 256.92 21.152C256.344 21.9627 255.491 22.656 254.36 23.232C253.23 23.808 251.864 24.096 250.264 24.096C247.896 24.096 245.955 23.4987 244.44 22.304C242.926 21.1093 242.168 19.3707 242.168 17.088C242.168 16.448 242.254 15.7013 242.424 14.848C242.958 12.224 244.12 10.2507 245.912 8.928C247.726 7.584 249.923 6.912 252.504 6.912ZM249.656 14.464C249.742 14.4853 249.859 14.496 250.008 14.496C250.904 14.496 251.587 14.08 252.056 13.248C252.526 12.416 252.75 11.488 252.728 10.464C252.707 9.86667 252.536 9.568 252.216 9.568C251.982 9.568 251.704 9.76 251.384 10.144C251.064 10.5067 250.744 11.0613 250.424 11.808C250.126 12.5547 249.87 13.44 249.656 14.464ZM289.611 11.616C289.611 13.5147 288.949 15.456 287.627 17.44C286.304 19.424 284.629 21.0667 282.603 22.368C280.597 23.648 278.624 24.288 276.683 24.288C275.147 24.288 273.845 24.0213 272.779 23.488C271.712 22.9547 271.019 22.1867 270.699 21.184C269.909 22.144 269.035 22.8693 268.075 23.36C267.115 23.8507 266.112 24.096 265.067 24.096C263.616 24.096 262.432 23.744 261.515 23.04C260.619 22.3147 260.171 21.2587 260.171 19.872C260.171 19.1467 260.288 18.4 260.523 17.632L262.315 11.36C262.357 11.1893 262.379 11.0613 262.379 10.976C262.379 10.7627 262.325 10.5813 262.219 10.432C262.112 10.2827 261.963 10.1227 261.771 9.952C261.451 9.67467 261.291 9.42933 261.291 9.216C261.269 8.91733 261.451 8.59733 261.835 8.256C262.219 7.91467 262.752 7.63733 263.435 7.424C264.139 7.18933 264.928 7.072 265.803 7.072C267.232 7.072 268.341 7.424 269.131 8.128C269.941 8.81067 270.347 9.70667 270.347 10.816C270.347 11.3067 270.261 11.84 270.091 12.416L268.459 17.856C268.373 18.1547 268.331 18.3573 268.331 18.464C268.331 18.7413 268.405 18.9547 268.555 19.104C268.725 19.2533 268.949 19.328 269.227 19.328C269.611 19.328 269.931 19.2 270.187 18.944C270.464 18.6667 270.731 18.2293 270.987 17.632L272.811 11.36C272.853 11.1893 272.875 11.0613 272.875 10.976C272.875 10.7627 272.821 10.5813 272.715 10.432C272.608 10.2827 272.459 10.1227 272.267 9.952C271.947 9.67467 271.787 9.42933 271.787 9.216C271.765 8.91733 271.947 8.59733 272.331 8.256C272.715 7.91467 273.248 7.63733 273.931 7.424C274.635 7.18933 275.424 7.072 276.299 7.072C277.749 7.072 278.869 7.41333 279.659 8.096C280.448 8.77867 280.843 9.68533 280.843 10.816C280.843 11.264 280.757 11.7973 280.587 12.416L278.507 19.264C278.464 19.3707 278.443 19.5307 278.443 19.744C278.443 20.0213 278.539 20.2347 278.731 20.384C278.923 20.5333 279.189 20.608 279.531 20.608C280 20.608 280.544 20.4053 281.163 20C281.803 19.5733 282.421 18.976 283.019 18.208C283.637 17.4187 284.139 16.4907 284.523 15.424C283.669 14.6773 283.061 13.9413 282.699 13.216C282.357 12.4907 282.187 11.744 282.187 10.976C282.187 9.888 282.485 8.97067 283.083 8.224C283.68 7.456 284.544 7.072 285.675 7.072C286.805 7.072 287.744 7.47733 288.491 8.288C289.237 9.09867 289.611 10.208 289.611 11.616ZM299.747 6.784C301.517 6.784 303.043 6.944 304.323 7.264C305.624 7.584 306.616 8.032 307.299 8.608C308.003 9.184 308.355 9.83467 308.355 10.56C308.355 11.3067 308.056 11.9147 307.459 12.384C306.883 12.8533 306.072 13.088 305.027 13.088C303.96 13.088 303.053 12.8213 302.307 12.288C301.581 11.7547 301.219 11.0827 301.219 10.272C301.219 9.99467 301.261 9.728 301.347 9.472C300.963 9.36533 300.621 9.312 300.323 9.312C299.789 9.312 299.341 9.44 298.979 9.696C298.637 9.952 298.477 10.3147 298.499 10.784C298.499 11.3387 298.776 11.808 299.331 12.192C299.885 12.576 300.781 13.056 302.019 13.632C303.085 14.1013 303.96 14.5387 304.643 14.944C305.347 15.328 305.933 15.8187 306.403 16.416C306.893 17.0133 307.139 17.7173 307.139 18.528C307.139 18.6987 307.096 19.0187 307.011 19.488C306.669 20.9173 305.72 22.048 304.163 22.88C302.605 23.712 300.557 24.128 298.019 24.128C295.16 24.128 292.888 23.744 291.203 22.976C289.539 22.208 288.707 21.152 288.707 19.808C288.707 18.8907 288.984 18.1973 289.539 17.728C290.093 17.2587 290.829 17.024 291.747 17.024C292.813 17.024 293.72 17.3547 294.467 18.016C295.235 18.6773 295.619 19.52 295.619 20.544C295.619 20.8213 295.587 21.1093 295.523 21.408C296.035 21.536 296.525 21.6 296.995 21.6C297.549 21.6 298.008 21.4507 298.371 21.152C298.733 20.8533 298.915 20.4373 298.915 19.904C298.893 19.4133 298.648 18.9973 298.179 18.656C297.709 18.2933 296.963 17.8667 295.939 17.376C294.979 16.928 294.189 16.512 293.571 16.128C292.952 15.7227 292.419 15.2213 291.971 14.624C291.544 14.0267 291.331 13.3227 291.331 12.512C291.331 10.7627 292.056 9.376 293.507 8.352C294.979 7.30667 297.059 6.784 299.747 6.784Z"
    fill="white" />
</svg>