<svg width="71" height="23" viewBox="0 0 71 23" fill="none" xmlns="http://www.w3.org/2000/svg">
<path d="M23.632 0.688C24.8053 0.688 25.392 1.168 25.392 2.128C25.392 2.42666 25.328 2.8 25.2 3.248L24.432 5.84C24.1973 6.62933 23.9093 7.184 23.568 7.504C23.2267 7.824 22.736 7.984 22.096 7.984C21.5627 7.984 21.1467 7.84533 20.848 7.568C20.5707 7.29067 20.304 6.85333 20.048 6.256L19.504 4.944C19.3333 4.53867 19.152 4.26133 18.96 4.112C18.768 3.96267 18.4693 3.888 18.064 3.888H17.328L13.264 18.192C13.2 18.4693 13.168 18.7147 13.168 18.928C13.168 19.184 13.2 19.3973 13.264 19.568C13.3493 19.7387 13.4667 19.92 13.616 20.112C13.808 20.4107 13.904 20.656 13.904 20.848C13.904 20.8907 13.8827 20.9973 13.84 21.168C13.7333 21.4453 13.52 21.648 13.2 21.776C12.9013 21.904 12.464 21.968 11.888 21.968H4.368C3.92 21.968 3.568 21.8933 3.312 21.744C3.07733 21.5947 2.96 21.3813 2.96 21.104C2.96 20.976 2.992 20.848 3.056 20.72C3.14133 20.528 3.23733 20.3893 3.344 20.304C3.472 20.1973 3.65333 20.0693 3.888 19.92C4.208 19.728 4.47467 19.5147 4.688 19.28C4.90133 19.0453 5.08267 18.6827 5.232 18.192L9.264 3.888H8.528C8.05867 3.888 7.67467 3.96267 7.376 4.112C7.07733 4.26133 6.75733 4.53867 6.416 4.944L5.36 6.256C4.86933 6.832 4.38933 7.26933 3.92 7.568C3.472 7.84533 2.98133 7.984 2.448 7.984C1.95733 7.984 1.57333 7.856 1.296 7.6C1.01867 7.344 0.88 6.992 0.88 6.544C0.88 6.33067 0.912 6.096 0.976 5.84L1.808 2.928C1.97867 2.33067 2.17067 1.88267 2.384 1.584C2.59733 1.264 2.896 1.04 3.28 0.911999C3.68533 0.762666 4.25067 0.688 4.976 0.688H23.632ZM33.4173 22.192C31.6253 22.192 30.0146 21.8613 28.5853 21.2C27.1559 20.5387 26.0146 19.568 25.1613 18.288C24.3293 16.9867 23.9133 15.4187 23.9133 13.584C23.9133 12.304 24.1373 10.9173 24.5853 9.424C25.5666 6.224 27.0493 3.92 29.0333 2.512C31.0173 1.08267 33.1399 0.367998 35.4013 0.367998C36.6173 0.367998 37.6946 0.549332 38.6333 0.911999C39.5719 1.27467 40.4359 1.79733 41.2253 2.48L42.0893 1.808C42.6653 1.36 43.1453 1.05067 43.5293 0.879999C43.9346 0.709332 44.3826 0.623999 44.8733 0.623999C45.4066 0.623999 45.8333 0.741332 46.1533 0.976C46.4733 1.21067 46.6333 1.552 46.6333 2C46.6333 2.23467 46.5906 2.46933 46.5053 2.704L44.7133 7.696C44.5213 8.272 44.2866 8.67733 44.0093 8.912C43.7533 9.14667 43.3586 9.264 42.8253 9.264C42.2706 9.264 41.8119 9.072 41.4493 8.688C41.1079 8.28267 40.7133 7.6 40.2653 6.64C39.7533 5.63733 39.3373 4.976 39.0173 4.656C38.6973 4.336 38.2279 4.176 37.6093 4.176C36.7346 4.176 35.8919 4.72 35.0813 5.808C34.2706 6.87467 33.5346 8.48533 32.8733 10.64C32.3186 12.4533 32.0413 13.968 32.0413 15.184C32.0413 16.2507 32.2439 17.0507 32.6493 17.584C33.0546 18.096 33.5986 18.352 34.2813 18.352C35.2839 18.352 36.1053 18.128 36.7453 17.68C37.4066 17.232 38.0786 16.624 38.7613 15.856C39.1879 15.3867 39.5293 15.0453 39.7853 14.832C40.0626 14.5973 40.3506 14.48 40.6493 14.48C41.0333 14.48 41.4386 14.672 41.8653 15.056C42.2919 15.44 42.4946 15.824 42.4733 16.208C42.4946 16.6773 42.1106 17.4027 41.3213 18.384C40.5533 19.3653 39.4759 20.2507 38.0893 21.04C36.7239 21.808 35.1666 22.192 33.4173 22.192ZM69.053 0.688C69.9277 0.688 70.365 0.965333 70.365 1.52C70.365 1.66933 70.3543 1.776 70.333 1.84C70.269 2.05333 70.173 2.224 70.045 2.352C69.917 2.45867 69.7357 2.58667 69.501 2.736C69.181 2.928 68.9143 3.14133 68.701 3.376C68.4877 3.61067 68.3063 3.97333 68.157 4.464L64.189 18.672C63.8263 19.952 63.3677 20.848 62.813 21.36C62.2797 21.872 61.533 22.128 60.573 22.128C59.7197 22.128 59.005 21.8827 58.429 21.392C57.8743 20.88 57.3517 20.1013 56.861 19.056L52.029 8.88L49.341 18.224C49.277 18.5013 49.245 18.7467 49.245 18.96C49.245 19.2373 49.2877 19.472 49.373 19.664C49.4797 19.8347 49.6183 20.016 49.789 20.208C50.0237 20.4853 50.141 20.72 50.141 20.912C50.141 21.04 50.1303 21.136 50.109 21.2C50.0237 21.4987 49.8317 21.712 49.533 21.84C49.2343 21.9467 48.7863 22 48.189 22H44.701C43.8263 22 43.389 21.7227 43.389 21.168C43.389 21.0187 43.3997 20.912 43.421 20.848C43.485 20.6347 43.581 20.4747 43.709 20.368C43.837 20.24 44.0183 20.1013 44.253 19.952C44.573 19.76 44.8397 19.5467 45.053 19.312C45.2663 19.0773 45.4477 18.7147 45.597 18.224L49.661 3.856L49.149 2.8C48.9357 2.37333 48.829 2 48.829 1.68C48.829 1.01867 49.2557 0.688 50.109 0.688H54.845C55.5277 0.688 56.0397 0.848 56.381 1.168C56.7437 1.46667 57.1277 2.01067 57.533 2.8L62.205 12.176L64.413 4.464C64.477 4.16533 64.509 3.92 64.509 3.728C64.509 3.45067 64.4557 3.22667 64.349 3.056C64.2637 2.864 64.1357 2.672 63.965 2.48C63.7303 2.20267 63.613 1.968 63.613 1.776C63.613 1.648 63.6237 1.552 63.645 1.488C63.7303 1.18933 63.9223 0.986666 64.221 0.879999C64.5197 0.752 64.9677 0.688 65.565 0.688H69.053Z" fill="white"/>
</svg>
